<svg width="1600" height="700" viewBox="0 0 1600 700" fill="none" xmlns="http://www.w3.org/2000/svg">
  <rect width="1600" height="700" rx="48" fill="#117A65"/>
  <path d="M0 520C220 420 440 580 660 500C880 420 1100 200 1600 260V700H0V520Z" fill="#1ABC9C" fill-opacity="0.35"/>
  <path d="M280 470C332 350 468 350 520 470C572 590 708 590 760 470C812 350 948 350 1000 470C1052 590 1188 590 1240 470" stroke="#F7F9F9" stroke-width="36" stroke-linecap="round" stroke-linejoin="round"/>
  <circle cx="420" cy="260" r="80" fill="#F7F9F9"/>
  <circle cx="800" cy="300" r="72" fill="#F7F9F9"/>
  <circle cx="1040" cy="240" r="60" fill="#F7F9F9"/>
  <rect x="340" y="320" width="160" height="220" rx="40" fill="#1ABC9C"/>
  <rect x="720" y="360" width="160" height="220" rx="40" fill="#2ECC71"/>
  <rect x="980" y="300" width="140" height="200" rx="36" fill="#1ABC9C" fill-opacity="0.7"/>
</svg>
