<svg width="1200" height="800" viewBox="0 0 1200 800" fill="none" xmlns="http://www.w3.org/2000/svg">
  <rect width="1200" height="800" rx="48" fill="#E8F8F5"/>
  <path d="M0 560C120 480 240 620 360 560C480 500 600 320 900 360C1200 400 1200 800 1200 800H0V560Z" fill="#D1F2EB"/>
  <rect x="200" y="220" width="280" height="360" rx="42" fill="#1ABC9C"/>
  <rect x="520" y="260" width="260" height="320" rx="40" fill="#2ECC71"/>
  <rect x="820" y="300" width="180" height="280" rx="36" fill="#48C9B0"/>
  <circle cx="340" cy="220" r="72" fill="#F7F9F9"/>
  <circle cx="650" cy="240" r="64" fill="#F7F9F9"/>
  <circle cx="900" cy="260" r="56" fill="#F7F9F9"/>
  <path d="M260 420L320 340" stroke="#F7F9F9" stroke-width="20" stroke-linecap="round"/>
  <path d="M580 440L640 360" stroke="#F7F9F9" stroke-width="20" stroke-linecap="round"/>
  <path d="M880 460L940 380" stroke="#F7F9F9" stroke-width="20" stroke-linecap="round"/>
</svg>
