<svg width="96" height="96" viewBox="0 0 96 96" fill="none" xmlns="http://www.w3.org/2000/svg">
  <rect width="96" height="96" rx="24" fill="#1ABC9C"/>
  <path d="M48 24C61.2548 24 72 34.7452 72 48C72 61.2548 61.2548 72 48 72C34.7452 72 24 61.2548 24 48C24 34.7452 34.7452 24 48 24Z" fill="#F7F9F9"/>
  <path d="M47.9997 33.7143C41.2776 33.7143 35.821 39.1709 35.821 45.893C35.821 52.6151 41.2776 58.0717 47.9997 58.0717C53.0562 58.0717 57.2974 55.0565 59.1977 50.6072H52.4453C51.2621 52.2264 49.5547 53.2145 47.9997 53.2145C43.9738 53.2145 40.6782 49.9189 40.6782 45.893C40.6782 41.8671 43.9738 38.5715 47.9997 38.5715C50.3236 38.5715 52.3741 39.6508 53.6736 41.3716H59.9695C57.8615 36.6669 53.2776 33.7143 47.9997 33.7143Z" fill="#1ABC9C"/>
  <path d="M64.1428 60.4286H31.8571C30.0915 60.4286 28.6428 61.8773 28.6428 63.6429C28.6428 65.4085 30.0915 66.8572 31.8571 66.8572H64.1428C65.9084 66.8572 67.3571 65.4085 67.3571 63.6429C67.3571 61.8773 65.9084 60.4286 64.1428 60.4286Z" fill="#F7F9F9"/>
</svg>
