<svg width="1200" height="800" viewBox="0 0 1200 800" fill="none" xmlns="http://www.w3.org/2000/svg">
  <rect width="1200" height="800" rx="48" fill="#E8F6F3"/>
  <path d="M260 560C220 480 260 380 340 340C420 300 540 320 580 260C620 200 720 160 780 220C840 280 860 380 940 400C1020 420 1080 500 1040 580C1000 660 900 700 800 700C700 700 660 640 580 620C500 600 300 640 260 560Z" fill="#1ABC9C"/>
  <path d="M480 420C500 380 560 360 600 380C640 400 640 460 680 480C720 500 780 480 820 500C860 520 880 580 840 620C800 660 720 660 660 640C600 620 560 540 520 520C480 500 460 460 480 420Z" fill="#48C9B0"/>
  <path d="M340 360L360 360C380 360 400 380 400 400L400 420" stroke="#117864" stroke-width="18" stroke-linecap="round"/>
  <path d="M940 420L920 440" stroke="#117864" stroke-width="18" stroke-linecap="round"/>
  <circle cx="520" cy="420" r="20" fill="#F7F9F9"/>
  <circle cx="660" cy="460" r="20" fill="#F7F9F9"/>
  <circle cx="840" cy="520" r="20" fill="#F7F9F9"/>
  <circle cx="420" cy="520" r="20" fill="#F7F9F9"/>
  <text x="360" y="320" font-family="Poppins, Arial" font-size="32" font-weight="600" fill="#117A65">Nigeria</text>
  <text x="820" y="380" font-family="Poppins, Arial" font-size="32" font-weight="600" fill="#117A65">Cameroon</text>
  <text x="600" y="720" text-anchor="middle" font-family="Poppins, Arial" font-size="28" font-weight="500" fill="#117A65">Service Coverage across Nigeria & Cameroon</text>
</svg>
