<svg width="1200" height="800" viewBox="0 0 1200 800" fill="none" xmlns="http://www.w3.org/2000/svg">
  <rect width="1200" height="800" rx="48" fill="#E8F8F5"/>
  <rect x="120" y="120" width="960" height="560" rx="36" fill="#ffffff"/>
  <path d="M240 560C240 480 320 420 400 420C480 420 560 480 560 560" stroke="#1ABC9C" stroke-width="24" stroke-linecap="round"/>
  <path d="M640 560C640 480 720 420 800 420C880 420 960 480 960 560" stroke="#2ECC71" stroke-width="24" stroke-linecap="round"/>
  <circle cx="400" cy="360" r="70" fill="#1ABC9C"/>
  <circle cx="800" cy="360" r="70" fill="#2ECC71"/>
  <rect x="360" y="520" width="80" height="120" rx="20" fill="#1ABC9C"/>
  <rect x="760" y="520" width="80" height="120" rx="20" fill="#2ECC71"/>
  <rect x="560" y="500" width="120" height="140" rx="28" fill="#48C9B0"/>
  <path d="M320 260H880" stroke="#d1f2eb" stroke-width="20" stroke-linecap="round"/>
  <path d="M320 300H880" stroke="#d1f2eb" stroke-width="14" stroke-linecap="round"/>
  <path d="M320 340H780" stroke="#d1f2eb" stroke-width="14" stroke-linecap="round"/>
  <path d="M620 280L680 200" stroke="#1ABC9C" stroke-width="18" stroke-linecap="round"/>
  <path d="M780 300L840 220" stroke="#2ECC71" stroke-width="18" stroke-linecap="round"/>
</svg>
